<svg width="64" height="64" viewBox="0 0 64 64" fill="none" xmlns="http://www.w3.org/2000/svg">
<circle cx="32" cy="32" r="32" fill="#F2F2F2"/>
<path d="M30.791 39C36.3145 39 40.791 34.5225 40.791 29C40.791 23.4775 36.3145 19 30.791 19C25.2676 19 20.791 23.4775 20.791 29C20.791 34.5225 25.2676 39 30.791 39Z" fill="white"/>
<path fill-rule="evenodd" clip-rule="evenodd" d="M64 32C64 49.6731 49.6731 64 32 64C14.3269 64 0 49.6731 0 32C0 14.3269 14.3269 0 32 0C49.6731 0 64 14.3269 64 32ZM12.3422 54.6627C15.4201 47.2294 22.7452 42 31.291 42C40.1752 42 47.738 47.6499 50.584 55.5523C57.5375 50.0581 62 41.5502 62 32C62 15.4315 48.5685 2 32 2C15.4315 2 2 15.4315 2 32C2 41.049 6.00642 49.1623 12.3422 54.6627Z" fill="white"/>
</svg>
